<svg width="33" height="33" viewBox="0 0 33 33" fill="none" xmlns="http://www.w3.org/2000/svg">
<g clip-path="url(#clip0_17_438)">
<path d="M21.6112 21.7143C21.3443 21.7143 21.0756 21.6311 20.8455 21.4584L15.733 17.6241C15.4108 17.3836 15.2219 17.004 15.2219 16.6018V8.93384C15.2219 8.22679 15.793 7.65573 16.5 7.65573C17.2071 7.65573 17.7781 8.22679 17.7781 8.93384V15.9631L22.3794 19.4139C22.9441 19.8367 23.0594 20.6385 22.6353 21.2019C22.3846 21.5396 22.0011 21.7143 21.6112 21.7143Z" fill="#A6C34F"/>
<path d="M16.5 33C7.40115 33 0 25.5988 0 16.5C0 7.40115 7.40115 0 16.5 0C25.5988 0 33 7.40115 33 16.5C33 25.5988 25.5988 33 16.5 33ZM16.5 2.55621C8.81268 2.55621 2.55621 8.81268 2.55621 16.5C2.55621 24.1873 8.81268 30.4438 16.5 30.4438C24.1873 30.4438 30.4438 24.1873 30.4438 16.5C30.4438 8.81268 24.1886 2.55621 16.5 2.55621Z" fill="#A6C34F"/>
</g>
<defs>
<clipPath id="clip0_17_438">
<rect width="33" height="33" fill="white"/>
</clipPath>
</defs>
</svg>
