<svg width="35" height="35" viewBox="0 0 35 35" fill="none" xmlns="http://www.w3.org/2000/svg">
<path d="M17.5 1C8.40244 1 1 8.40244 1 17.5C1 26.5976 8.40244 34 17.5 34C26.5976 34 34 26.5976 34 17.5C34 8.40244 26.5976 1 17.5 1ZM17.5 31.9375C9.53875 31.9375 3.0625 25.4613 3.0625 17.5C3.0625 9.53875 9.53875 3.0625 17.5 3.0625C25.4613 3.0625 31.9375 9.53875 31.9375 17.5C31.9375 25.4613 25.4613 31.9375 17.5 31.9375Z" fill="#A6C34F" stroke="#A6C34F"/>
<path d="M18.5312 11.3125C19.4304 11.3125 20.276 11.5787 21.0436 12.1027C21.5141 12.4224 22.1574 12.3051 22.4771 11.8327C22.7987 11.3621 22.6769 10.7208 22.207 10.3992C21.1055 9.64832 19.8345 9.25 18.5312 9.25C15.5097 9.25 12.9232 11.3886 11.8488 14.4063H10.2812C9.71213 14.4063 9.25 14.8684 9.25 15.4375C9.25 16.0067 9.71213 16.4688 10.2812 16.4688H11.4034C11.366 16.811 11.3125 17.1475 11.3125 17.5C11.3125 17.8526 11.366 18.1891 11.4034 18.5313H10.2812C9.71213 18.5313 9.25 18.9934 9.25 19.5626C9.25 20.1317 9.71213 20.5938 10.2812 20.5938H11.8488C12.9232 23.6115 15.5097 25.7501 18.5312 25.7501C19.8345 25.7501 21.1055 25.3518 22.2064 24.6015C22.6769 24.2799 22.798 23.6386 22.4764 23.1681C22.1567 22.6976 21.5135 22.5783 21.043 22.898C20.276 23.4214 19.4304 23.6876 18.5312 23.6876C16.6318 23.6876 14.9857 22.4333 14.093 20.5938H17.5C18.0691 20.5938 18.5312 20.1317 18.5312 19.5626C18.5312 18.9934 18.0691 18.5313 17.5 18.5313H13.4614C13.4137 18.1949 13.375 17.8526 13.375 17.5C13.375 17.1475 13.4143 16.8052 13.4614 16.4688H18.5312C19.1004 16.4688 19.5625 16.0067 19.5625 15.4375C19.5625 14.8684 19.1004 14.4063 18.5312 14.4063H14.093C14.9857 12.5668 16.6318 11.3125 18.5312 11.3125Z" fill="#A6C34F"/>
</svg>
