<svg width="33" height="33" viewBox="0 0 33 33" fill="none" xmlns="http://www.w3.org/2000/svg">
<path d="M32.1484 10.3839C31.0196 9.25505 29.1778 9.25505 28.0424 10.3839C27.6925 10.7337 25.4745 12.9584 25.1312 13.2951V5.63753C25.1312 4.86517 24.8276 4.13243 24.2797 3.58452L21.5467 0.851571C20.9988 0.303661 20.2727 0 19.4937 0H2.89798C1.30046 0 0 1.30046 0 2.89798V30.102C0 31.6995 1.30046 33 2.89798 33H22.2398C23.8374 33 25.1378 31.6995 25.1378 30.102V21.5071L32.1484 14.4899C33.2839 13.3545 33.2839 11.5193 32.1484 10.3839ZM22.4049 21.5071L21.8834 22.0286L19.8304 22.7151L20.5169 20.6621L21.0384 20.1406L22.4049 21.5071ZM23.7714 20.1406L22.4049 18.7742C23.131 18.048 26.3657 14.8068 27.0522 14.1202L28.4187 15.4867L23.7714 20.1406ZM20.1868 2.21804L22.9198 4.95099C23.2234 5.25465 23.2036 5.59132 23.2036 5.80256H19.3353V1.93419C19.5201 1.93419 19.87 1.90118 20.1868 2.21804ZM22.2398 31.0724H2.89798C2.36327 31.0724 1.93419 30.6367 1.93419 30.1086V2.89798C1.93419 2.36327 2.36987 1.93419 2.89798 1.93419H17.4011V6.76635C17.4011 7.30106 17.8368 7.73015 18.3649 7.73015H23.197V15.2358L20.3453 18.0942L18.9788 19.4607C18.8732 19.5663 18.794 19.6983 18.7477 19.837L17.3813 23.9364C17.2625 24.2863 17.3549 24.6691 17.6123 24.9266C17.8698 25.184 18.2526 25.2765 18.6025 25.1576L22.7019 23.7912C22.8472 23.745 22.9726 23.6657 23.0782 23.5601L23.197 23.4413V30.102C23.2036 30.6367 22.768 31.0724 22.2398 31.0724ZM30.782 13.1234L29.7852 14.1202L28.4187 12.7538L29.4155 11.757C29.7918 11.3807 30.4057 11.3807 30.782 11.757C31.1582 12.1332 31.1648 12.7405 30.782 13.1234Z" fill="#A6C34F"/>
<path d="M4.83215 11.6053H18.3715C18.9062 11.6053 19.3352 11.1696 19.3352 10.6415C19.3352 10.1068 18.8996 9.67773 18.3715 9.67773H4.83215C4.29745 9.67773 3.86836 10.1134 3.86836 10.6415C3.86176 11.1696 4.29745 11.6053 4.83215 11.6053Z" fill="#A6C34F"/>
<path d="M4.83215 15.4734H14.5031C15.0378 15.4734 15.4669 15.0377 15.4669 14.5097C15.4669 13.9751 15.0312 13.546 14.5031 13.546H4.83215C4.29745 13.546 3.86836 13.9817 3.86836 14.5097C3.86176 15.0377 4.29745 15.4734 4.83215 15.4734Z" fill="#A6C34F"/>
<path d="M4.83215 19.3352H14.5031C15.0378 19.3352 15.4669 18.8995 15.4669 18.3713C15.4669 17.8366 15.0312 17.4075 14.5031 17.4075H4.83215C4.29745 17.4075 3.86836 17.8432 3.86836 18.3713C3.86176 18.9061 4.29745 19.3352 4.83215 19.3352Z" fill="#A6C34F"/>
<path d="M15.4669 22.2397C15.4669 21.7051 15.0312 21.2761 14.5031 21.2761H4.8322C4.29749 21.2761 3.86841 21.7117 3.86841 22.2397C3.86841 22.7743 4.3041 23.2032 4.8322 23.2032H14.5031C15.0378 23.2032 15.4669 22.7743 15.4669 22.2397Z" fill="#A6C34F"/>
<path d="M18.3715 27.204H12.5689C12.0342 27.204 11.6051 27.6397 11.6051 28.1678C11.6051 28.7025 12.0408 29.1316 12.5689 29.1316H18.3715C18.9062 29.1316 19.3353 28.6959 19.3353 28.1678C19.3353 27.6331 18.9062 27.204 18.3715 27.204Z" fill="#A6C34F"/>
</svg>
