<svg width="24" height="24" viewBox="0 0 24 24" fill="none" xmlns="http://www.w3.org/2000/svg">
<path d="M3.75 12V21.131C3.75 21.2951 3.82902 21.4526 3.96967 21.5687C4.11032 21.6848 4.30109 21.75 4.5 21.75H9V16.4881C9 16.2418 9.11853 16.0056 9.3295 15.8315C9.54048 15.6574 9.82663 15.5595 10.125 15.5595H13.875C14.1734 15.5595 14.4595 15.6574 14.6705 15.8315C14.8815 16.0056 15 16.2418 15 16.4881V21.75H19.5C19.6989 21.75 19.8897 21.6848 20.0303 21.5687C20.171 21.4526 20.25 21.2951 20.25 21.131V12" stroke="white" stroke-width="2" stroke-linecap="round" stroke-linejoin="round"/>
<path d="M18.75 8.39065V3.00002H16.5V6.2344M22.5 12L12.5105 2.43752C12.2761 2.19002 11.7281 2.18721 11.4895 2.43752L1.5 12H22.5Z" stroke="white" stroke-width="2" stroke-linecap="round" stroke-linejoin="round"/>
</svg>
