<svg width="23" height="24" viewBox="0 0 23 24" fill="none" xmlns="http://www.w3.org/2000/svg">
<g clip-path="url(#clip0_508_1066)">
<path d="M11.5001 2.13836C14.5712 2.13836 14.9338 2.15189 16.1461 2.20601C16.8759 2.21487 17.5989 2.34848 18.2837 2.60107C18.7816 2.7876 19.2324 3.08136 19.6042 3.46154C19.9862 3.83285 20.2802 4.28497 20.4647 4.78471C20.7184 5.46828 20.852 6.19056 20.8597 6.91965C20.9165 8.13189 20.9274 8.49719 20.9274 11.5684C20.9274 14.6395 20.9274 15.0021 20.8597 16.2144C20.852 16.9435 20.7184 17.6657 20.4647 18.3493C20.2734 18.8452 19.9806 19.2956 19.605 19.6717C19.2294 20.0477 18.7794 20.3411 18.2837 20.5329C17.5989 20.7855 16.8759 20.9191 16.1461 20.928C14.9338 20.9821 14.5712 20.9957 11.5001 20.9957C8.42889 20.9957 8.06631 20.9821 6.85407 20.928C6.12421 20.9191 5.40124 20.7855 4.71642 20.5329C4.22077 20.3411 3.77071 20.0477 3.39512 19.6717C3.01954 19.2956 2.72672 18.8452 2.53548 18.3493C2.28175 17.6657 2.14809 16.9435 2.14041 16.2144C2.08359 15.0021 2.07277 14.6368 2.07277 11.5684C2.07277 8.49989 2.07277 8.13189 2.14041 6.91965C2.14809 6.19056 2.28175 5.46828 2.53548 4.78471C2.71996 4.28497 3.01397 3.83285 3.39595 3.46154C3.76769 3.08136 4.21849 2.7876 4.71642 2.60107C5.40124 2.34848 6.12421 2.21487 6.85407 2.20601C8.06631 2.15189 8.42889 2.13836 11.5001 2.13836ZM11.5001 0.0683594C8.37748 0.0683594 7.98241 0.0683594 6.75936 0.136006C5.80466 0.157476 4.86049 0.340455 3.96688 0.677183C3.20265 0.972174 2.50862 1.42381 1.92936 2.00306C1.35011 2.58232 0.898466 3.27637 0.603475 4.0406C0.26573 4.93297 0.0827121 5.87643 0.0622989 6.83036C0.00547541 8.05883 -0.00805664 8.45389 -0.00805664 11.5738C-0.00805664 14.6937 -0.008054 15.0914 0.0622989 16.3145C0.0831422 17.2692 0.266141 18.2135 0.603475 19.1069C0.899075 19.8705 1.35096 20.5639 1.93016 21.1426C2.50936 21.7213 3.20309 22.1727 3.96688 22.4677C4.86011 22.8057 5.80451 22.9887 6.75936 23.0088C7.98512 23.0657 8.38289 23.0792 11.5001 23.0792C14.6172 23.0792 15.0177 23.0657 16.2408 23.0088C17.1956 22.9887 18.14 22.8057 19.0332 22.4677C19.797 22.1727 20.4908 21.7213 21.07 21.1426C21.6492 20.5639 22.1011 19.8705 22.3967 19.1069C22.734 18.2135 22.917 17.2692 22.9378 16.3145C22.9947 15.0887 23.0082 14.6909 23.0082 11.5738C23.0082 8.4566 23.0082 8.05613 22.9378 6.83036C22.9174 5.87643 22.7344 4.93297 22.3967 4.0406C22.1017 3.27637 21.65 2.58232 21.0708 2.00306C20.4915 1.42381 19.7975 0.972174 19.0332 0.677183C18.1396 0.340455 17.1955 0.157476 16.2408 0.136006C15.015 0.0791829 14.6172 0.0683594 11.5001 0.0683594Z" fill="white"/>
<path d="M11.5 5.66138C10.3316 5.66084 9.18928 6.00683 8.21753 6.65556C7.24578 7.3043 6.48825 8.22665 6.04075 9.30595C5.59325 10.3853 5.47589 11.573 5.70351 12.719C5.93112 13.8651 6.49348 14.9178 7.31947 15.7442C8.14546 16.5706 9.19798 17.1334 10.3439 17.3616C11.4898 17.5897 12.6776 17.4729 13.7571 17.0259C14.8366 16.5789 15.7593 15.8218 16.4085 14.8503C17.0577 13.8789 17.4042 12.7367 17.4042 11.5683C17.4046 10.7927 17.2521 10.0247 16.9556 9.30803C16.659 8.59139 16.2242 7.94019 15.6759 7.39165C15.1276 6.8431 14.4766 6.40796 13.7601 6.11107C13.0436 5.81419 12.2756 5.66138 11.5 5.66138ZM11.5 15.4026C10.7415 15.4026 10.0001 15.1776 9.36951 14.7562C8.73892 14.3348 8.24747 13.7358 7.95735 13.035C7.66722 12.3342 7.59146 11.5631 7.73962 10.8193C7.88779 10.0755 8.25322 9.39227 8.78972 8.85615C9.32622 8.32003 10.0097 7.95507 10.7536 7.80743C11.4976 7.65979 12.2686 7.73611 12.9692 8.02673C13.6697 8.31735 14.2684 8.80921 14.6894 9.4401C15.1103 10.071 15.3347 10.8126 15.3342 11.571C15.3328 12.587 14.9282 13.5608 14.2093 14.2787C13.4904 14.9966 12.5159 15.3998 11.5 15.3998V15.4026Z" fill="white"/>
<path d="M17.6398 6.80883C18.4019 6.80883 19.0198 6.19098 19.0198 5.42883C19.0198 4.66667 18.4019 4.04883 17.6398 4.04883C16.8776 4.04883 16.2598 4.66667 16.2598 5.42883C16.2598 6.19098 16.8776 6.80883 17.6398 6.80883Z" fill="white"/>
</g>
<defs>
<clipPath id="clip0_508_1066">
<rect width="23" height="23" fill="white" transform="translate(0 0.0683594)"/>
</clipPath>
</defs>
</svg>
