<svg width="33" height="48" viewBox="0 0 33 48" fill="none" xmlns="http://www.w3.org/2000/svg">
<path d="M32.1589 29.5864C32.6846 28.841 33 27.8567 33 26.7864C33 24.4738 31.5205 22.5912 29.703 22.5912H23.2968C23.9276 20.1448 24.2055 16.8956 24.2055 15.5004V14.1052C24.2055 11.0184 22.2303 8.50513 19.8045 8.50513H18.708C18.2048 8.50513 17.7617 8.94472 17.6416 9.56588L17.0407 12.6144C16.1996 16.8861 13.5335 21.5973 10.7772 22.4574C10.2965 20.8997 9.10241 19.7912 7.70551 19.7912H1.0965C0.488166 19.7912 0 20.4219 0 21.1864V46.3865C0 47.1606 0.495676 47.7817 1.0965 47.7817H7.698C9.01229 47.7817 10.1463 46.807 10.6796 45.3927L14.4572 46.9981C15.6964 47.5237 16.9807 47.7913 18.2874 47.7913H27.5025C29.32 47.7913 30.7995 45.9087 30.7995 43.5961C30.7995 43.0513 30.7169 42.5257 30.5667 42.0479C31.9636 41.5606 33 39.9264 33 37.996C33 36.9257 32.6846 35.9414 32.1589 35.196C32.6846 34.4506 33 33.4663 33 32.396C33 31.3257 32.6771 30.3223 32.1589 29.5864ZM8.79449 43.5769C8.79449 44.351 8.29881 44.9722 7.698 44.9722H2.19299V22.5721H7.69049C8.29882 22.5721 8.78698 23.2028 8.78698 23.9673V43.5769H8.79449ZM27.5025 30.9817H29.703C30.3113 30.9817 30.7995 31.6124 30.7995 32.3769C30.7995 33.1414 30.3038 33.7721 29.703 33.7721H27.5025C26.8942 33.7721 26.406 34.4029 26.406 35.1674C26.406 35.9319 26.9017 36.5626 27.5025 36.5626H29.703C30.3113 36.5626 30.7995 37.1933 30.7995 37.9578C30.7995 38.7223 30.3038 39.353 29.703 39.353H27.5025C26.8942 39.353 26.406 39.9838 26.406 40.7483C26.406 41.5128 26.9017 42.1435 27.5025 42.1435C28.1108 42.1435 28.599 42.7742 28.599 43.5387C28.599 44.3032 28.1033 44.9339 27.5025 44.9339H18.2799C17.2135 44.9339 16.162 44.7141 15.1482 44.2841L10.995 42.5257V25.2001C12.7223 24.7796 14.4122 23.3939 15.9367 21.1195C17.4238 18.8929 18.6329 15.9495 19.1661 13.2355L19.5567 11.2478H19.797C21.0137 11.2478 21.9975 12.4997 21.9975 14.0478V15.443C21.9975 17.3256 21.5319 20.9284 20.9461 22.5339H18.7005C18.0922 22.5339 17.604 23.1646 17.604 23.9291C17.604 24.6936 18.0997 25.3243 18.7005 25.3243H29.6955C30.3038 25.3243 30.792 25.955 30.792 26.7195C30.792 27.484 30.2963 28.1148 29.6955 28.1148H27.495C26.8867 28.1148 26.3985 28.7455 26.3985 29.51C26.3985 30.2745 26.8942 30.9817 27.5025 30.9817Z" fill="#A6C34F"/>
<path d="M5.49771 42.1729C6.10341 42.1729 6.59443 41.5481 6.59443 40.7773C6.59443 40.0065 6.10341 39.3816 5.49771 39.3816C4.89202 39.3816 4.401 40.0065 4.401 40.7773C4.401 41.5481 4.89202 42.1729 5.49771 42.1729Z" fill="#A6C34F"/>
<path d="M21.9976 4.29081V1.39523C21.9976 0.621158 21.5019 0 20.9011 0C20.3002 0 19.8046 0.630714 19.8046 1.39523V4.29081C19.8046 5.06488 20.3002 5.68605 20.9011 5.68605C21.5019 5.68605 21.9976 5.06488 21.9976 4.29081Z" fill="#A6C34F"/>
<path d="M16.2303 8.15238C16.6585 7.60758 16.6585 6.7187 16.2303 6.17391L14.6754 4.19546C14.2472 3.65067 13.5486 3.65067 13.1204 4.19546C12.6923 4.74025 12.6923 5.62912 13.1204 6.17391L14.6754 8.15238C15.1035 8.69717 15.8021 8.69717 16.2303 8.15238Z" fill="#A6C34F"/>
<path d="M27.1198 8.15238L28.6748 6.17391C29.1029 5.62912 29.1029 4.74025 28.6748 4.19546C28.2466 3.65067 27.548 3.65067 27.1198 4.19546L25.5649 6.17391C25.1367 6.7187 25.1367 7.60758 25.5649 8.15238C25.9931 8.69717 26.6917 8.69717 27.1198 8.15238Z" fill="#A6C34F"/>
</svg>
