<svg width="31" height="33" viewBox="0 0 31 33" fill="none" xmlns="http://www.w3.org/2000/svg">
<path d="M29.4659 20.4295C29.9348 19.9148 30.2161 19.2351 30.2161 18.4961C30.2161 16.8992 28.8966 15.5993 27.2756 15.5993H21.5619C22.1245 13.91 22.3724 11.6665 22.3724 10.703V9.73963C22.3724 7.60826 20.6107 5.8728 18.4472 5.8728H17.4692C17.0204 5.8728 16.6252 6.17634 16.5181 6.60526L15.9822 8.71024C15.232 11.6599 12.8541 14.913 10.3958 15.5069C9.96709 14.4313 8.90206 13.6658 7.65617 13.6658H1.76165C1.21908 13.6658 0.783691 14.1014 0.783691 14.6293V32.03C0.783691 32.5645 1.22578 32.9934 1.76165 32.9934H7.64947C8.82168 32.9934 9.83313 32.3203 10.3087 31.3437L13.678 32.4523C14.7832 32.8152 15.9286 33 17.0941 33H25.313C26.9339 33 28.2535 31.7001 28.2535 30.1032C28.2535 29.727 28.1798 29.3641 28.0459 29.0342C29.2918 28.6977 30.2161 27.5693 30.2161 26.2363C30.2161 25.4973 29.9348 24.8176 29.4659 24.3029C29.9348 23.7882 30.2161 23.1086 30.2161 22.3695C30.2161 21.6305 29.9281 20.9376 29.4659 20.4295ZM8.62743 30.09C8.62743 30.6245 8.18534 31.0534 7.64947 31.0534H2.7396V15.5861H7.64277C8.18534 15.5861 8.62073 16.0216 8.62073 16.5495V30.09H8.62743ZM25.313 21.3929H27.2756C27.8181 21.3929 28.2535 21.8284 28.2535 22.3563C28.2535 22.8842 27.8114 23.3197 27.2756 23.3197H25.313C24.7704 23.3197 24.335 23.7552 24.335 24.2831C24.335 24.811 24.7771 25.2465 25.313 25.2465H27.2756C27.8181 25.2465 28.2535 25.6821 28.2535 26.21C28.2535 26.7378 27.8114 27.1734 27.2756 27.1734H25.313C24.7704 27.1734 24.335 27.6089 24.335 28.1368C24.335 28.6647 24.7771 29.1002 25.313 29.1002C25.8555 29.1002 26.2909 29.5357 26.2909 30.0636C26.2909 30.5915 25.8488 31.027 25.313 31.027H17.0874C16.1362 31.027 15.1985 30.8752 14.2942 30.5783L10.59 29.3641V17.4007C12.1307 17.1104 13.6378 16.1536 14.9975 14.5831C16.3238 13.0456 17.4022 11.0132 17.8778 9.13915L18.2261 7.76662H18.4405C19.5256 7.76662 20.4031 8.63105 20.4031 9.70004V10.6634C20.4031 11.9634 19.9878 14.4511 19.4653 15.5597H17.4625C16.92 15.5597 16.4846 15.9952 16.4846 16.5231C16.4846 17.051 16.9267 17.4865 17.4625 17.4865H27.2689C27.8114 17.4865 28.2468 17.922 28.2468 18.4499C28.2468 18.9778 27.8047 19.4133 27.2689 19.4133H25.3063C24.7637 19.4133 24.3283 19.8488 24.3283 20.3767C24.3283 20.9046 24.7704 21.3929 25.313 21.3929Z" fill="#A6C34F"/>
<path d="M5.68713 29.1204C6.22735 29.1204 6.66529 28.6889 6.66529 28.1567C6.66529 27.6245 6.22735 27.193 5.68713 27.193C5.14692 27.193 4.70898 27.6245 4.70898 28.1567C4.70898 28.6889 5.14692 29.1204 5.68713 29.1204Z" fill="#A6C34F"/>
<path d="M20.4032 2.96282V0.963407C20.4032 0.428911 19.9611 0 19.4252 0C18.8894 0 18.4473 0.43551 18.4473 0.963407V2.96282C18.4473 3.49731 18.8894 3.92623 19.4252 3.92623C19.9611 3.92623 20.4032 3.49731 20.4032 2.96282Z" fill="#A6C34F"/>
<path d="M15.2595 5.62927C15.6414 5.25308 15.6414 4.63931 15.2595 4.26313L13.8727 2.897C13.4908 2.52082 12.8678 2.52082 12.4859 2.897C12.104 3.27318 12.104 3.88695 12.4859 4.26313L13.8727 5.62927C14.2546 6.00545 14.8777 6.00545 15.2595 5.62927Z" fill="#A6C34F"/>
<path d="M24.9716 5.62927L26.3584 4.26313C26.7403 3.88695 26.7403 3.27318 26.3584 2.897C25.9765 2.52082 25.3535 2.52082 24.9716 2.897L23.5848 4.26313C23.2029 4.63931 23.2029 5.25308 23.5848 5.62927C23.9666 6.00545 24.5897 6.00545 24.9716 5.62927Z" fill="#A6C34F"/>
</svg>
