<svg width="24" height="24" viewBox="0 0 24 24" fill="none" xmlns="http://www.w3.org/2000/svg">
<path d="M15 4.5H4.125C3.62772 4.5 3.15081 4.69754 2.79917 5.04917C2.44754 5.40081 2.25 5.87772 2.25 6.375V17.625C2.25 18.1223 2.44754 18.5992 2.79917 18.9508C3.15081 19.3025 3.62772 19.5 4.125 19.5H19.8155C20.3128 19.5 20.7897 19.3025 21.1413 18.9508C21.4929 18.5992 21.6905 18.1223 21.6905 17.625V11.2031" stroke="white" stroke-width="2" stroke-linecap="round" stroke-linejoin="round"/>
<path d="M5.25 7.5L12 12.75L16.0781 9.67172" stroke="white" stroke-width="2" stroke-linecap="round" stroke-linejoin="round"/>
<path d="M20.2477 8.25003C21.489 8.25003 22.4953 7.24372 22.4953 6.00237C22.4953 4.76102 21.489 3.75471 20.2477 3.75471C19.0063 3.75471 18 4.76102 18 6.00237C18 7.24372 19.0063 8.25003 20.2477 8.25003Z" fill="white"/>
<path d="M20.2501 9C19.6572 9 19.0777 8.82419 18.5847 8.4948C18.0917 8.16542 17.7075 7.69725 17.4806 7.14949C17.2537 6.60174 17.1944 5.99901 17.31 5.41753C17.4257 4.83604 17.7112 4.3019 18.1304 3.88267C18.5497 3.46344 19.0838 3.17794 19.6653 3.06228C20.2468 2.94661 20.8495 3.00598 21.3973 3.23286C21.945 3.45975 22.4132 3.84397 22.7426 4.33693C23.072 4.82989 23.2478 5.40946 23.2478 6.00234C23.2472 6.79718 22.9311 7.55928 22.3691 8.12132C21.8071 8.68336 21.0449 8.99938 20.2501 9ZM20.2501 4.50468C19.9533 4.50422 19.6631 4.5918 19.4161 4.75634C19.1691 4.92088 18.9765 5.15498 18.8626 5.42903C18.7487 5.70308 18.7187 6.00475 18.7763 6.29588C18.8339 6.58701 18.9766 6.8545 19.1863 7.06451C19.396 7.27453 19.6632 7.41762 19.9543 7.47569C20.2453 7.53376 20.547 7.50419 20.8212 7.39073C21.0955 7.27727 21.3299 7.08501 21.4948 6.83828C21.6597 6.59156 21.7478 6.30146 21.7478 6.00468C21.7478 5.60726 21.5901 5.22609 21.3093 4.94485C21.0285 4.66361 20.6475 4.5053 20.2501 4.50468Z" fill="white"/>
</svg>
