<svg width="33" height="33" viewBox="0 0 33 33" fill="none" xmlns="http://www.w3.org/2000/svg">
<path d="M16.5 0C7.40235 0 0 7.40235 0 16.5C0 25.5976 7.40235 33 16.5 33C25.5976 33 33 25.5976 33 16.5C33 7.40235 25.5976 0 16.5 0ZM31.0071 16.5C31.0071 24.4976 24.4976 31.0071 16.5 31.0071C8.50235 31.0071 1.99294 24.4976 1.99294 16.5C1.99294 8.50235 8.50235 1.99294 16.5 1.99294C24.4976 1.99294 31.0071 8.50235 31.0071 16.5Z" fill="#A6C34F"/>
<path d="M25.8564 12.7794C25.5523 12.553 25.1511 12.5141 24.8211 12.6824L20.7253 14.7012L17.3735 8.59943C17.2053 8.29531 16.8753 8.10767 16.5 8.10767C16.1247 8.10767 15.7947 8.29531 15.6264 8.59943L12.2747 14.7012L8.17878 12.6824C7.84231 12.5141 7.44113 12.5465 7.13701 12.773C6.83937 12.9994 6.69054 13.3683 6.74878 13.7371L8.26937 22.7248C8.35349 23.2036 8.7676 23.553 9.2529 23.553H23.7341C24.2194 23.553 24.6335 23.2036 24.7176 22.7248L26.2382 13.7371C26.3094 13.3747 26.1606 13.0059 25.8564 12.7794ZM23.9541 15.3353L22.8994 21.5665H10.107L9.05231 15.3353L12.2553 16.9142C12.7341 17.1536 13.3164 16.9724 13.5688 16.5L16.5064 11.1553L19.4441 16.5C19.7029 16.9724 20.2788 17.1536 20.7576 16.9142L23.9541 15.3353Z" fill="#A6C34F"/>
</svg>
