<svg width="33" height="27" viewBox="0 0 33 27" fill="none" xmlns="http://www.w3.org/2000/svg">
<path d="M32.8695 8.00515L27.3467 0.731949C27.1448 0.461349 26.7671 0.395349 26.487 0.580149L22.9181 2.87695H18.268C18.2093 2.87695 18.1507 2.89015 18.0921 2.90995L14.4841 3.95935L10.7392 2.92315L7.10514 0.580149C6.8251 0.401949 6.46038 0.461349 6.25198 0.718749L0.143036 8.38795C-0.0783968 8.66515 -0.0393204 9.06775 0.227701 9.29875L3.43196 12.0906L6.30408 16.011C5.46394 16.9151 5.48347 18.3474 6.35618 19.2318C6.74694 19.6212 7.2354 19.8456 7.74339 19.8984C7.72385 20.0172 7.71734 20.136 7.71734 20.2548C7.71734 20.8752 7.95831 21.4559 8.38815 21.8916C8.81799 22.3272 9.39762 22.5714 10.0033 22.5714C10.0098 22.5714 10.0228 22.5714 10.0294 22.5714C10.0294 22.5846 10.0294 22.6044 10.0294 22.6176C10.0294 23.238 10.2703 23.8188 10.7002 24.2544C11.13 24.69 11.7096 24.9342 12.3153 24.9342C12.4391 24.9342 12.5563 24.921 12.6735 24.9078C12.7256 25.4226 12.9405 25.9242 13.3313 26.3202C13.7742 26.769 14.3603 27 14.9465 27C15.5326 27 16.1188 26.7756 16.5616 26.3202L16.9133 25.9638L17.0631 26.0826C17.506 26.5182 18.0791 26.736 18.6522 26.736C19.2384 26.736 19.8245 26.5116 20.2674 26.0562C20.7233 25.5942 20.9447 24.9869 20.9382 24.3797C21.5374 24.3864 22.1365 24.162 22.5924 23.7C23.0483 23.238 23.2697 22.6308 23.2632 22.0236C23.8885 22.0368 24.4746 21.7926 24.9175 21.3438C25.3734 20.8818 25.5948 20.2746 25.5883 19.6674C26.1874 19.674 26.7866 19.4496 27.2425 18.9876C28.0175 18.2022 28.1217 16.9811 27.5421 16.0836L29.6392 11.6285L32.7913 8.87635C33.0388 8.67175 33.0779 8.27575 32.8695 8.00515ZM6.89674 1.99915L9.50834 3.68215L3.82273 10.7045L1.54327 8.71795L6.89674 1.99915ZM7.26796 16.8888L8.056 16.0902C8.08205 16.0638 8.1081 16.044 8.12764 16.0241C8.28395 15.8988 8.4663 15.8196 8.6682 15.7998C8.67471 15.7998 8.68122 15.7998 8.68774 15.7998C8.71379 15.7998 8.74635 15.7932 8.7724 15.7932C9.04594 15.7998 9.29342 15.912 9.48229 16.11C9.847 16.4994 9.82746 17.1396 9.4367 17.5356L8.67471 18.3078C8.29046 18.6972 7.65873 18.6972 7.26796 18.3078C6.8772 17.9184 6.8772 17.2782 7.26796 16.8888ZM9.29342 20.9676C9.10455 20.7762 9.00035 20.5254 9.00035 20.2548C9.00035 19.9841 9.10455 19.7334 9.29342 19.542L10.8239 17.9909C11.117 17.694 11.5794 17.6147 11.9506 17.793C12.3349 17.9778 12.5563 18.4067 12.4977 18.8292C12.4651 19.0602 12.3609 19.2714 12.2046 19.4364L10.7002 20.961C10.5113 21.1524 10.2638 21.258 9.9968 21.258C9.72977 21.2646 9.48229 21.159 9.29342 20.9676ZM11.6054 23.3303C11.4166 23.139 11.3124 22.8882 11.3124 22.6176C11.3124 22.347 11.4166 22.0961 11.6054 21.9047L13.1359 20.3538C13.4485 20.037 13.95 19.971 14.3343 20.1954C14.686 20.4 14.8683 20.8092 14.8097 21.2118C14.7771 21.4362 14.6729 21.6407 14.5166 21.7992L13.0122 23.3238C12.8233 23.5152 12.5758 23.6208 12.3088 23.6208C12.0418 23.6274 11.7943 23.5217 11.6054 23.3303ZM14.2366 25.3962C13.8523 25.0068 13.8523 24.3666 14.2366 23.9706L15.0246 23.172C15.0507 23.1456 15.0767 23.1257 15.0963 23.1059C15.2265 23.0003 15.3763 22.9278 15.5391 22.9014C15.5456 22.9014 15.5456 22.9014 15.5522 22.9014C15.5782 22.8948 15.6108 22.8948 15.6368 22.8882C15.6498 22.8882 15.6564 22.8882 15.6694 22.8882C15.6954 22.8882 15.715 22.8882 15.741 22.8882C16.008 22.8948 16.262 23.007 16.4509 23.205C16.477 23.2313 16.4965 23.2577 16.516 23.2841C16.8156 23.6802 16.7765 24.261 16.4053 24.6371L15.6433 25.4094C15.2526 25.7856 14.6273 25.7856 14.2366 25.3962ZM26.3112 18.0768C25.9269 18.4662 25.2952 18.4662 24.9044 18.0768C24.8914 18.0636 24.8784 18.0504 24.8588 18.0371L20.6972 13.7736C20.4432 13.5162 20.0394 13.5162 19.7789 13.767C19.5249 14.0244 19.5249 14.4336 19.7724 14.6976L23.9796 19.0074C24.3639 19.3968 24.3639 20.037 23.9796 20.433C23.7908 20.6244 23.5433 20.73 23.2763 20.73C23.0092 20.73 22.7617 20.6244 22.5729 20.433L19.7594 17.5488C19.5054 17.2914 19.1016 17.2913 18.8411 17.5422C18.5871 17.7995 18.5871 18.2154 18.8346 18.4728L21.6025 21.3108C21.6155 21.3306 21.6285 21.3438 21.6481 21.3636C22.0323 21.753 22.0323 22.3932 21.6481 22.7892C21.2638 23.1786 20.6321 23.1786 20.2413 22.7892L18.7043 21.2184C18.4503 20.961 18.04 20.961 17.786 21.2118C17.532 21.4692 17.532 21.8783 17.7795 22.1423L19.2709 23.6735C19.2839 23.6933 19.297 23.7066 19.3165 23.7264C19.7008 24.1158 19.7008 24.756 19.3165 25.152C18.9323 25.5414 18.3005 25.5414 17.9098 25.152C17.8642 25.1058 17.8121 25.0728 17.76 25.0332C17.7144 25.0002 17.7079 24.9804 17.7274 24.9276C17.7469 24.8748 17.7795 24.8286 17.8056 24.7758C17.8316 24.7164 17.8511 24.657 17.8642 24.5976C17.9619 24.2742 17.9944 23.9244 17.9488 23.5878C17.8642 22.941 17.5125 22.3602 16.985 21.9906C16.6984 21.7926 16.3662 21.6606 16.0211 21.6144C16.1904 20.8686 15.9885 20.0634 15.4675 19.5024C15.0376 19.0404 14.458 18.783 13.8393 18.7764C13.8198 18.7764 13.7937 18.7764 13.7742 18.7764C13.7872 18.1758 13.5723 17.5752 13.162 17.1396C12.7321 16.6842 12.1525 16.4268 11.5338 16.4136C11.3514 16.4136 11.1626 16.4334 10.9802 16.473C10.9021 15.9318 10.635 15.4302 10.2247 15.0672C9.82095 14.7108 9.30645 14.5128 8.75938 14.5062C8.18626 14.4996 7.61965 14.7108 7.19632 15.1002L4.69543 11.6814L10.6806 4.28935L12.5889 4.81735L10.101 9.27235C9.80141 9.81355 9.72326 10.4339 9.88608 11.0345C10.0489 11.6286 10.4331 12.1302 10.9607 12.4338C10.9932 12.4536 11.0258 12.4734 11.0584 12.4866C11.0584 12.4866 11.0649 12.4866 11.0649 12.4932C11.1561 12.5394 11.2472 12.579 11.3384 12.612C11.7748 12.7638 12.2437 12.7836 12.6931 12.6516C13.2792 12.4866 13.7742 12.0972 14.0738 11.5626L15.6954 8.66515L18.5871 8.86975L26.3112 16.6512C26.6954 17.0472 26.6954 17.6808 26.3112 18.0768ZM26.5782 15.0672L19.3556 7.75435C19.3426 7.74115 19.3295 7.72795 19.31 7.71475C19.2058 7.62895 19.0755 7.57615 18.9388 7.56295L15.4024 7.30555C15.1549 7.28575 14.9139 7.41775 14.7967 7.63555L12.9796 10.8894C12.8494 11.1204 12.6345 11.292 12.3805 11.3645C12.1265 11.4372 11.8594 11.4042 11.625 11.2722C11.397 11.1402 11.2277 10.9223 11.1561 10.665C11.0844 10.4075 11.117 10.137 11.2472 9.89935L13.6765 5.55655L14.6599 5.27275C14.6664 5.27275 14.6729 5.26615 14.6794 5.26615L18.3526 4.19035H22.7943L28.3366 11.3316L26.5782 15.0672ZM29.1898 10.2954L24.0643 3.68875L26.6824 2.00575L31.4693 8.30875L29.1898 10.2954Z" fill="#A6C34F" stroke="#A6C34F" stroke-width="0.5"/>
</svg>
