<svg width="13" height="14" viewBox="0 0 13 14" fill="none" xmlns="http://www.w3.org/2000/svg">
<path d="M4.02358 6.42682C4.34823 7.78588 6.10131 9.46852 7.39988 9.79211C7.98424 9.92154 8.63353 9.59796 8.82832 9.0155C9.08803 8.17418 10.1918 7.91531 10.8411 8.56248L12.6591 10.3746C13.1136 10.8276 13.1136 11.6042 12.6591 12.1219L11.4255 13.3515C10.1269 14.6459 6.68567 13.2221 3.63401 10.1804C0.582352 7.13871 -0.781155 3.7087 0.452494 2.41436L1.68614 1.18474C2.14065 0.731716 2.91979 0.731716 3.43922 1.18474L5.25723 2.99681C5.90652 3.64399 5.6468 4.74418 4.80273 5.00304C4.21837 5.1972 3.8288 5.84437 4.02358 6.42682Z" fill="#9cc634"/>
</svg>
