<svg width="24" height="24" viewBox="0 0 24 24" fill="none" xmlns="http://www.w3.org/2000/svg">
<path d="M18.8438 7.875C18.7065 9.78141 17.2923 11.25 15.7501 11.25C14.2079 11.25 12.7914 9.78188 12.6564 7.875C12.5157 5.89172 13.8925 4.5 15.7501 4.5C17.6078 4.5 18.9845 5.92781 18.8438 7.875Z" stroke="white" stroke-width="2" stroke-linecap="round" stroke-linejoin="round"/>
<path d="M15.7501 14.25C12.6952 14.25 9.75756 15.7673 9.02162 18.7223C8.92412 19.1133 9.16928 19.5 9.571 19.5H21.9296C22.3313 19.5 22.5751 19.1133 22.479 18.7223C21.743 15.72 18.8054 14.25 15.7501 14.25Z" stroke="white" stroke-width="2" stroke-miterlimit="10"/>
<path d="M9.3752 8.71594C9.26551 10.2384 8.1227 11.4375 6.89082 11.4375C5.65895 11.4375 4.51427 10.2389 4.40645 8.71594C4.29442 7.13203 5.40676 6 6.89082 6C8.37489 6 9.48723 7.16109 9.3752 8.71594Z" stroke="white" stroke-width="2" stroke-linecap="round" stroke-linejoin="round"/>
<path d="M9.65622 14.3437C8.81013 13.9561 7.87825 13.807 6.8906 13.807C4.4531 13.807 2.10466 15.0187 1.51638 17.3789C1.43903 17.6911 1.63497 18 1.9556 18H7.21872" stroke="white" stroke-width="2" stroke-miterlimit="10" stroke-linecap="round"/>
</svg>
