<svg width="33" height="35" viewBox="0 0 33 35" fill="none" xmlns="http://www.w3.org/2000/svg">
<g clip-path="url(#clip0_17_533)">
<path d="M32.9219 30.66L26.9615 21.378C29.2881 19.103 30.6887 16.079 30.6887 12.754C30.6887 9.219 29.0935 6.048 26.5258 3.738C23.958 1.428 20.4409 0 16.5114 0C12.5819 0 9.057 1.435 6.48921 3.745C3.92142 6.055 2.33406 9.226 2.33406 12.754C2.33406 16.079 3.73467 19.103 6.06125 21.378L0.100858 30.66C-0.000297102 30.814 -0.0314218 31.024 0.0308276 31.234C0.163108 31.563 0.559948 31.71 0.933445 31.591L5.69553 29.883L6.42696 34.468C6.45809 34.65 6.55924 34.825 6.76155 34.916C7.09614 35.098 7.52411 34.979 7.72642 34.678L13.7491 25.305C14.6128 25.452 15.5465 25.543 16.4491 25.543C17.3829 25.543 18.2777 25.452 19.1492 25.305L25.1718 34.678C25.3741 34.979 25.8021 35.07 26.1367 34.916C26.339 34.825 26.4402 34.643 26.4713 34.468L27.2027 29.883L31.9648 31.591C32.3305 31.71 32.7274 31.563 32.8674 31.234C33.0542 31.024 33.023 30.814 32.9219 30.66ZM7.59414 32.459L6.99499 28.896C6.92496 28.567 6.59815 28.329 6.19353 28.357C6.1235 28.357 6.06125 28.385 5.99121 28.42L2.29515 29.736L7.08836 22.281C8.59013 23.478 10.3876 24.409 12.3796 24.948L7.59414 32.459ZM16.5114 24.255C12.9865 24.255 9.78843 22.967 7.49298 20.902C5.19753 18.837 3.7658 15.96 3.7658 12.789C3.7658 9.618 5.19753 6.741 7.49298 4.669C9.78843 2.541 12.9865 1.253 16.5114 1.253C20.0363 1.253 23.2343 2.541 25.5298 4.606C27.8252 6.671 29.257 9.548 29.257 12.719C29.257 15.89 27.8252 18.767 25.5298 20.832C23.2343 22.967 20.0363 24.255 16.5114 24.255ZM27.0315 28.42C26.9615 28.392 26.8993 28.357 26.8292 28.357C26.4635 28.294 26.0978 28.539 26.0278 28.896L25.4286 32.459L20.6354 24.941C22.6352 24.402 24.4326 23.471 25.9266 22.274L30.7198 29.729L27.0315 28.42Z" fill="#A6C34F" stroke="#A6C34F" stroke-width="0.5"/>
<path d="M23.0323 10.542C22.8689 10.332 22.6666 10.185 22.4331 10.094C22.1997 10.003 21.9351 9.94701 21.6706 9.97501H18.9083L18.0446 7.51801C17.9123 7.16101 17.6088 6.86001 17.282 6.67801C17.0486 6.58701 16.8151 6.53101 16.5506 6.53101C16.286 6.53101 16.0526 6.59401 15.8191 6.67801C15.4534 6.86001 15.1889 7.12601 15.0566 7.51801L14.1929 9.97501H11.4305C11.166 9.94701 10.9014 10.003 10.668 10.094C10.4346 10.185 10.2322 10.332 10.0688 10.542C9.80428 10.871 9.73425 11.228 9.80428 11.592C9.87431 11.956 10.0688 12.278 10.4346 12.523L12.7611 14.021L11.8585 16.478C11.8585 16.506 11.8585 16.541 11.8274 16.541C11.7574 16.723 11.7574 16.933 11.7963 17.143C11.8274 17.353 11.9285 17.563 12.0997 17.745C12.3643 18.074 12.73 18.256 13.1346 18.312C13.5315 18.375 13.9672 18.284 14.3018 18.039L16.6284 16.513L18.955 18.039C19.3207 18.277 19.7175 18.34 20.1221 18.312C20.519 18.249 20.8847 18.074 21.157 17.745C21.3204 17.563 21.3905 17.353 21.4605 17.143C21.4916 16.933 21.4916 16.751 21.4294 16.541C21.4294 16.513 21.4294 16.478 21.3982 16.478L20.4956 14.021L22.8222 12.523C23.1879 12.285 23.3902 11.956 23.4525 11.592C23.398 11.256 23.3046 10.871 23.0323 10.542ZM21.8729 11.501L21.8418 11.529L19.1417 13.293C18.9083 13.44 18.776 13.741 18.8771 13.979L19.912 16.821V16.849C19.912 16.877 19.912 16.912 19.912 16.94C19.912 16.968 19.912 17.003 19.8809 17.003C19.8498 17.031 19.8109 17.066 19.7486 17.066C19.7175 17.066 19.6475 17.066 19.6164 17.038L16.8852 15.239C16.7529 15.148 16.6206 15.12 16.4494 15.12C16.3171 15.12 16.1459 15.148 16.0137 15.239L13.2825 17.038C13.2513 17.066 13.1813 17.066 13.1502 17.066C13.1191 17.066 13.049 17.038 13.0179 17.003C12.9868 16.975 12.9868 16.94 12.9868 16.94C12.9868 16.912 12.9868 16.877 12.9868 16.849V16.821L14.0217 13.979C14.1228 13.706 14.0217 13.44 13.7571 13.293L11.1971 11.529L11.166 11.501C11.1349 11.473 11.096 11.438 11.096 11.41C11.096 11.382 11.096 11.319 11.1271 11.291C11.1271 11.291 11.1271 11.263 11.1582 11.263C11.1893 11.235 11.1893 11.235 11.2282 11.235C11.2594 11.235 11.2983 11.207 11.3294 11.207C11.3605 11.207 11.3994 11.207 11.4305 11.207H14.6909C14.9943 11.207 15.2589 11.025 15.36 10.759L16.3949 7.88201C16.3949 7.85401 16.4261 7.79101 16.4961 7.79101C16.5272 7.79101 16.5661 7.76301 16.5661 7.76301C16.5973 7.76301 16.6362 7.76301 16.6362 7.79101C16.6673 7.81901 16.7062 7.85401 16.7373 7.88201L17.7722 10.759C17.8422 10.99 18.1068 11.2 18.4103 11.2H21.6706C21.7017 11.2 21.7406 11.2 21.7717 11.2C21.8029 11.2 21.8418 11.2 21.8729 11.228C21.904 11.228 21.904 11.256 21.9429 11.256C21.9429 11.256 21.9429 11.284 21.9741 11.284C22.0052 11.312 22.0052 11.347 22.0052 11.403C21.9351 11.438 21.904 11.466 21.8729 11.501Z" fill="#A6C34F" stroke="#A6C34F" stroke-width="0.5"/>
<path d="M24.3318 5.71897C22.332 3.91997 19.5697 2.81396 16.5117 2.81396C13.4459 2.81396 10.6836 3.91997 8.69159 5.71897C6.69961 7.51797 5.4624 10.003 5.4624 12.754C5.4624 15.505 6.69183 17.997 8.69159 19.789C10.6914 21.581 13.4537 22.694 16.5117 22.694C19.5775 22.694 22.3398 21.588 24.3318 19.789C26.3238 17.99 27.561 15.505 27.561 12.754C27.561 10.003 26.3315 7.51797 24.3318 5.71897ZM23.3669 18.893C21.6006 20.482 19.1728 21.441 16.5117 21.441C13.8505 21.441 11.415 20.454 9.68758 18.893C7.92126 17.304 6.85523 15.148 6.85523 12.754C6.85523 10.36 7.95238 8.16897 9.68758 6.61497C11.415 5.02596 13.8505 4.03896 16.5117 4.03896C19.1728 4.03896 21.6084 5.02596 23.3358 6.58697C25.1021 8.17597 26.1681 10.332 26.1681 12.726C26.1681 15.12 25.1021 17.339 23.3669 18.893Z" fill="#A6C34F" stroke="#A6C34F" stroke-width="0.5"/>
</g>
<defs>
<clipPath id="clip0_17_533">
<rect width="33" height="35" fill="white"/>
</clipPath>
</defs>
</svg>
