<svg width="23" height="19" viewBox="0 0 23 19" fill="none" xmlns="http://www.w3.org/2000/svg">
<path d="M7.21382 18.76C15.902 18.76 20.641 11.5698 20.641 5.33278C20.641 5.13006 20.641 4.92734 20.641 4.72461C21.5642 4.05615 22.3612 3.22886 22.9947 2.28138C22.1333 2.66128 21.2203 2.91148 20.2856 3.02383C21.2708 2.43343 22.008 1.50533 22.3602 0.412111C21.4345 0.962572 20.421 1.34995 19.3641 1.55737C18.7166 0.867829 17.8768 0.388741 16.9536 0.182228C16.0305 -0.0242847 15.0666 0.0513045 14.187 0.399191C13.3073 0.747078 12.5525 1.35122 12.0203 2.13327C11.4882 2.91533 11.2032 3.83922 11.2025 4.78516C11.201 5.14758 11.2416 5.50894 11.3236 5.86197C9.44739 5.76792 7.61192 5.28029 5.93641 4.43074C4.26089 3.58119 2.78278 2.38872 1.5981 0.930769C0.993955 1.96961 0.80876 3.19977 1.08027 4.37044C1.35178 5.54111 2.05955 6.56416 3.05929 7.23102C2.3098 7.2081 1.57671 7.00588 0.921474 6.64128C0.920099 6.66144 0.920099 6.68167 0.921474 6.70183C0.921781 7.79133 1.29896 8.8472 1.989 9.69032C2.67905 10.5334 3.6395 11.1119 4.70743 11.3276C4.01287 11.5162 3.28447 11.5441 2.57751 11.4092C2.88077 12.3456 3.46806 13.1644 4.25785 13.7518C5.04764 14.3392 6.00072 14.666 6.98477 14.6871C5.31279 15.998 3.24884 16.7092 1.1242 16.7064C0.748488 16.7071 0.373068 16.6851 0 16.6406C2.15751 18.0262 4.66811 18.762 7.23226 18.76" fill="white"/>
</svg>
