<svg width="22" height="22" viewBox="0 0 22 22" fill="none" xmlns="http://www.w3.org/2000/svg">
<g clip-path="url(#clip0_17_486)">
<path d="M15.862 7.50933C16.1993 7.84667 16.1993 8.38933 15.862 8.72667L10.098 14.4907C9.76067 14.828 9.218 14.828 8.88067 14.4907L6.138 11.748C5.80067 11.4107 5.80067 10.868 6.138 10.5307C6.47533 10.1933 7.018 10.1933 7.35533 10.5307L9.48933 12.6647L14.6447 7.50933C14.982 7.172 15.5247 7.172 15.862 7.50933ZM22 11C22 17.0793 17.0793 22 11 22C4.92067 22 0 17.0793 0 11C0 4.92067 4.92067 0 11 0C17.0793 0 22 4.92067 22 11ZM20.284 11C20.284 5.86667 16.1333 1.716 11 1.716C5.86667 1.716 1.716 5.874 1.716 11C1.716 16.1333 5.86667 20.284 11 20.284C16.1333 20.284 20.284 16.126 20.284 11Z" fill="#A6C34F"/>
</g>
<defs>
<clipPath id="clip0_17_486">
<rect width="22" height="22" fill="white"/>
</clipPath>
</defs>
</svg>
